<svg width="58" height="48" viewBox="0 0 58 48" fill="none" xmlns="http://www.w3.org/2000/svg">
<path d="M12.4726 19.2H5.38154C3.29632 19.2 2.18995 21.6467 3.5753 23.1945L23.5813 45.546C26.4653 48.7681 31.5347 48.7681 34.4187 45.546L54.4247 23.1945C55.81 21.6467 54.7037 19.2 52.6185 19.2H45.5274C43.8679 26.7484 37.0985 32.4 29 32.4C20.9015 32.4 14.1321 26.7484 12.4726 19.2Z" fill="url(#paint0_linear_6_1929)"/>
<path fill-rule="evenodd" clip-rule="evenodd" d="M29 30C37.0081 30 43.5 23.5529 43.5 15.6C43.5 7.64711 37.0081 1.20001 29 1.20001C20.9919 1.20001 14.5 7.64711 14.5 15.6C14.5 23.5529 20.9919 30 29 30ZM39.3534 21.7906C40.4515 19.9832 41.0833 17.8649 41.0833 15.6C41.0833 8.97259 35.6734 3.60001 29 3.60001C22.3266 3.60001 16.9167 8.97259 16.9167 15.6C16.9167 17.8649 17.5485 19.9832 18.6466 21.7906C19.7347 19.5539 22.4303 17.7949 25.8324 17.1102C24.1078 16.0537 22.9583 14.1601 22.9583 12C22.9583 8.6863 25.6633 6.00001 29 6.00001C32.3367 6.00001 35.0417 8.6863 35.0417 12C35.0417 14.1601 33.8922 16.0537 32.1676 17.1102C35.5697 17.7949 38.2653 19.5539 39.3534 21.7906ZM37.4516 24.1762C37.4561 24.1168 37.4583 24.058 37.4583 24C37.4583 23.0639 36.8852 21.9227 35.3493 20.9058C33.8302 19.9001 31.5925 19.2 29 19.2C26.4075 19.2 24.1698 19.9001 22.6507 20.9058C21.1148 21.9227 20.5417 23.0639 20.5417 24C20.5417 24.058 20.5439 24.1168 20.5484 24.1762C22.7273 26.2943 25.7101 27.6 29 27.6C32.2899 27.6 35.2727 26.2943 37.4516 24.1762ZM29 15.6C31.002 15.6 32.625 13.9882 32.625 12C32.625 10.0118 31.002 8.40001 29 8.40001C26.998 8.40001 25.375 10.0118 25.375 12C25.375 13.9882 26.998 15.6 29 15.6Z" fill="#003E70"/>
<defs>
<linearGradient id="paint0_linear_6_1929" x1="0.0200732" y1="28.5624" x2="58.0187" y2="28.5624" gradientUnits="userSpaceOnUse">
<stop stop-color="#FFDD65"/>
<stop offset="1" stop-color="#72E455"/>
</linearGradient>
</defs>
</svg>
