<svg width="58" height="48" viewBox="0 0 58 48" fill="none" xmlns="http://www.w3.org/2000/svg">
<path d="M14.5 19.2V23.4C14.5 24.6037 15.1057 25.7277 16.1142 26.3954L26.9892 33.5954C28.2068 34.4015 29.7931 34.4015 31.0108 33.5954L41.8858 26.3954C42.8943 25.7277 43.5 24.6037 43.5 23.4V19.2H52.6185C54.7037 19.2 55.81 21.6467 54.4247 23.1945L34.4187 45.546C31.5347 48.7681 26.4653 48.7681 23.5813 45.546L3.5753 23.1945C2.18995 21.6467 3.29632 19.2 5.38154 19.2H14.5Z" fill="url(#paint0_linear_6_2214)"/>
<path fill-rule="evenodd" clip-rule="evenodd" d="M29.6703 2.60154C29.2644 2.33282 28.7356 2.33282 28.3298 2.60154L17.4548 9.80154C17.1186 10.0241 16.9167 10.3988 16.9167 10.8V23.4001C16.9167 23.8014 17.1186 24.176 17.4548 24.3986L28.3244 31.5951C28.3423 31.607 28.3605 31.6185 28.3791 31.6296C28.4574 31.6762 28.5398 31.7133 28.6247 31.7408C28.8967 31.829 29.1941 31.8193 29.4624 31.7088C29.5167 31.6865 29.5697 31.6601 29.621 31.6296C29.6395 31.6185 29.6578 31.607 29.6756 31.5951L40.5453 24.3986C40.8814 24.176 41.0834 23.8014 41.0834 23.4001V10.8001C41.0834 10.75 41.0802 10.7001 41.074 10.651C41.0308 10.3075 40.8394 9.99628 40.5453 9.80154L29.6703 2.60154ZM32.5614 14.1999L29 16.5578L20.3034 10.8L23.8647 8.44215L32.5614 14.1999ZM34.7397 12.7577L26.0431 6.99993L29 5.04222L37.6967 10.8L34.7397 12.7577ZM33.8334 16.2424V19.7999C33.8334 20.4626 34.3743 20.9999 35.0417 20.9999C35.709 20.9999 36.25 20.4626 36.25 19.7999V14.6424L38.6667 13.0424V22.7579L30.2084 28.3579V18.6424L33.8334 16.2424ZM27.7917 18.6424L19.3334 13.0424V22.7579L27.7917 28.3579V18.6424Z" fill="#003E70"/>
<defs>
<linearGradient id="paint0_linear_6_2214" x1="0.0200733" y1="28.5624" x2="58.0187" y2="28.5624" gradientUnits="userSpaceOnUse">
<stop stop-color="#004D7D"/>
<stop offset="1" stop-color="#55C2E4"/>
</linearGradient>
</defs>
</svg>
