<svg width="58" height="48" viewBox="0 0 58 48" fill="none" xmlns="http://www.w3.org/2000/svg">
<path d="M14.8618 19.2H5.38154C3.29632 19.2 2.18995 21.6467 3.5753 23.1945L23.5813 45.546C26.4653 48.7681 31.5347 48.7681 34.4187 45.546L54.4247 23.1945C55.81 21.6467 54.7037 19.2 52.6185 19.2H39.5132C39.2533 20.2566 38.8593 21.261 38.35 22.1944L41.2299 25.0544C42.6456 26.4603 42.6456 28.7397 41.2299 30.1456C39.8143 31.5515 37.5191 31.5515 36.1034 30.1456L33.2235 27.2855C31.4285 28.2515 29.3725 28.8 27.1875 28.8C21.2214 28.8 16.217 24.7104 14.8618 19.2Z" fill="url(#paint0_linear_6_1958)"/>
<path d="M30.2084 16.2C30.2084 16.8627 30.7493 17.4 31.4167 17.4C32.084 17.4 32.625 16.8627 32.625 16.2C32.625 14.7678 32.0521 13.3943 31.0324 12.3816C30.0127 11.3689 28.6296 10.8 27.1875 10.8C26.5202 10.8 25.9792 11.3373 25.9792 12C25.9792 12.6627 26.5202 13.2 27.1875 13.2C27.9887 13.2 28.7571 13.5161 29.3236 14.0787C29.8901 14.6413 30.2084 15.4043 30.2084 16.2Z" fill="#003E70"/>
<path fill-rule="evenodd" clip-rule="evenodd" d="M27.1875 26.4C29.5883 26.4 31.7967 25.582 33.5455 24.2112L37.8123 28.4485C38.2842 28.9172 39.0492 28.9172 39.5211 28.4485C39.993 27.9799 39.993 27.2201 39.5211 26.7515L35.2544 22.5142C36.6346 20.7774 37.4584 18.5842 37.4584 16.2C37.4584 10.5667 32.8599 6 27.1875 6C21.5151 6 16.9167 10.5667 16.9167 16.2C16.9167 21.8333 21.5151 26.4 27.1875 26.4ZM27.1875 24C31.5253 24 35.0417 20.5078 35.0417 16.2C35.0417 11.8922 31.5253 8.4 27.1875 8.4C22.8498 8.4 19.3334 11.8922 19.3334 16.2C19.3334 20.5078 22.8498 24 27.1875 24Z" fill="#003E70"/>
<defs>
<linearGradient id="paint0_linear_6_1958" x1="0.0200733" y1="28.5624" x2="58.0187" y2="28.5624" gradientUnits="userSpaceOnUse">
<stop stop-color="#004D7D"/>
<stop offset="1" stop-color="#55C2E4"/>
</linearGradient>
</defs>
</svg>
