<svg width="58" height="48" viewBox="0 0 58 48" fill="none" xmlns="http://www.w3.org/2000/svg">
<path d="M14.4999 19.2H5.38154C3.29632 19.2 2.18995 21.6467 3.5753 23.1945L23.5813 45.546C26.4653 48.7681 31.5347 48.7681 34.4187 45.546L54.4247 23.1945C55.81 21.6467 54.7037 19.2 52.6185 19.2H42.6322C42.8824 19.7328 43.0222 20.3271 43.0222 20.9538C43.0222 22.8978 41.6775 24.5299 39.8615 24.9828C39.6889 27.1195 37.8882 28.8 35.6923 28.8C33.5315 28.8 31.7533 27.1727 31.5327 25.0848C31.0638 25.0359 30.618 24.9101 30.2083 24.7203V25.2C30.2083 27.851 28.0443 30 25.3749 30H19.3333C16.6639 30 14.4999 27.851 14.4999 25.2V19.2Z" fill="url(#paint0_linear_6_2435)"/>
<path fill-rule="evenodd" clip-rule="evenodd" d="M19.3334 3.60001C17.9987 3.60001 16.9167 4.67452 16.9167 6.00001V12C16.9167 13.3255 17.9987 14.4 19.3334 14.4H25.3751C26.7098 14.4 27.7917 13.3255 27.7917 12V6.00001C27.7917 4.67452 26.7098 3.60001 25.3751 3.60001H19.3334ZM25.3751 6.00001H19.3334L19.3334 12H25.3751V6.00001Z" fill="#003E70"/>
<path fill-rule="evenodd" clip-rule="evenodd" d="M19.3334 16.8C17.9987 16.8 16.9167 17.8745 16.9167 19.2V25.2C16.9167 26.5255 17.9987 27.6 19.3334 27.6H25.3751C26.7098 27.6 27.7917 26.5255 27.7917 25.2V19.2C27.7917 17.8745 26.7098 16.8 25.3751 16.8H19.3334ZM25.3751 19.2H19.3334L19.3334 25.2H25.3751V19.2Z" fill="#003E70"/>
<path fill-rule="evenodd" clip-rule="evenodd" d="M30.2084 6.00001C30.2084 4.67452 31.2904 3.60001 32.6251 3.60001H38.6667C40.0014 3.60001 41.0834 4.67452 41.0834 6.00001V12C41.0834 13.3255 40.0014 14.4 38.6667 14.4H32.6251C31.2904 14.4 30.2084 13.3255 30.2084 12V6.00001ZM32.6251 6.00001H38.6667V12H32.6251V6.00001Z" fill="#003E70"/>
<path d="M36.8542 17.9944C36.8542 17.3317 36.3133 16.7944 35.6459 16.7944C34.9786 16.7944 34.4376 17.3317 34.4376 17.9944V20.3944H32.0209C31.3536 20.3944 30.8126 20.9317 30.8126 21.5944C30.8126 22.2572 31.3536 22.7944 32.0209 22.7944H34.4376V25.1944C34.4376 25.8572 34.9786 26.3944 35.6459 26.3944C36.3133 26.3944 36.8542 25.8572 36.8542 25.1944V22.7944H39.2709C39.9383 22.7944 40.4792 22.2572 40.4792 21.5944C40.4792 20.9317 39.9383 20.3944 39.2709 20.3944H36.8542V17.9944Z" fill="#003E70"/>
<defs>
<linearGradient id="paint0_linear_6_2435" x1="12.6239" y1="35.4001" x2="58.03" y2="26.0013" gradientUnits="userSpaceOnUse">
<stop stop-color="#01D193"/>
<stop offset="0.762888" stop-color="#133F6D"/>
</linearGradient>
</defs>
</svg>
